<?xml version="1.0" standalone="no"?>
<!DOCTYPE svg PUBLIC "-//W3C//DTD SVG 20010904//EN"
 "http://www.w3.org/TR/2001/REC-SVG-20010904/DTD/svg10.dtd">
<svg version="1.0" xmlns="http://www.w3.org/2000/svg"
 width="714.000000pt" height="714.000000pt" viewBox="0 0 714.000000 714.000000"
 preserveAspectRatio="xMidYMid meet">
<metadata>
Created by potrace 1.14, written by Peter Selinger 2001-2017
</metadata>
<g transform="translate(0.000000,714.000000) scale(0.100000,-0.100000)"
fill="#000000" stroke="none">
<path d="M1189 6810 l-375 -5 -78 -38 c-126 -63 -210 -159 -256 -297 l-22 -64
4 -2785 3 -2786 37 -78 c51 -107 138 -194 245 -245 l78 -37 2786 -3 2785 -4
64 22 c120 40 207 108 273 212 56 88 58 100 67 438 10 357 11 4241 1 4891 l-6
425 -39 80 c-52 105 -125 178 -230 230 l-80 39 -450 6 c-538 8 -4271 7 -4807
-1z m3440 -1387 c16 -16 248 -414 515 -885 404 -713 486 -864 486 -895 0 -29
-20 -74 -86 -191 l-86 -152 -644 0 -644 0 0 417 c0 414 0 417 -22 440 l-21 23
-1105 0 -1104 0 35 63 c19 34 177 312 350 617 232 409 323 560 344 572 26 17
92 18 990 18 l963 0 29 -27z m-1539 -1854 l0 -411 29 -29 29 -29 1096 0 c603
0 1096 -2 1096 -4 0 -2 -78 -141 -173 -308 -95 -166 -251 -442 -347 -612 -96
-170 -185 -315 -197 -323 -18 -12 -167 -14 -994 -14 l-973 0 -26 28 c-15 15
-246 414 -514 886 -350 618 -486 867 -486 889 0 20 30 83 87 184 l87 154 643
0 643 0 0 -411z"/>
</g>
</svg>
